<svg xmlns="http://www.w3.org/2000/svg" viewBox="0 0 1254 1254">
<path d="M 828.0 29.0 Q 828.0 29.0 826.0 29.5 Q 824.0 30.0 822.5 31.0 Q 821.0 32.0 819.5 33.5 Q 818.0 35.0 818.0 37.0 Q 818.0 39.0 818.0 41.0 Q 818.0 43.0 818.0 45.0 Q 818.0 47.0 818.0 49.0 Q 818.0 51.0 818.0 53.0 Q 818.0 55.0 818.0 57.0 Q 818.0 59.0 818.0 61.0 Q 818.0 63.0 818.0 65.0 Q 818.0 67.0 818.0 69.0 Q 818.0 71.0 818.0 73.0 Q 818.0 75.0 818.0 77.0 Q 818.0 79.0 818.0 81.0 Q 818.0 83.0 818.0 85.0 Q 818.0 87.0 818.0 89.0 Q 818.0 91.0 818.0 93.0 Q 818.0 95.0 818.0 97.0 Q 818.0 99.0 818.0 101.0 Q 818.0 103.0 818.0 105.0 Q 818.0 107.0 818.0 109.0 Q 818.0 111.0 818.0 113.0 Q 818.0 115.0 818.0 117.0 Q 818.0 119.0 818.0 121.0 Q 818.0 123.0 818.0 125.0 Q 818.0 127.0 818.0 129.0 Q 818.0 131.0 818.0 133.0 Q 818.0 135.0 818.0 137.0 Q 818.0 139.0 818.0 141.0 Q 818.0 143.0 818.0 145.0 Q 818.0 147.0 818.0 149.0 Q 818.0 151.0 818.0 153.0 Q 818.0 155.0 818.0 157.0 Q 818.0 159.0 818.0 161.0 Q 818.0 163.0 818.0 165.0 Q 818.0 167.0 818.0 169.0 Q 818.0 171.0 818.0 173.0 Q 818.0 175.0 818.0 177.0 Q 818.0 179.0 818.0 181.0 Q 818.0 183.0 818.0 185.0 Q 818.0 187.0 818.0 189.0 Q 818.0 191.0 818.0 193.0 Q 818.0 195.0 818.0 197.0 Q 818.0 199.0 818.0 201.0 Q 818.0 203.0 818.0 205.0 Q 818.0 207.0 818.0 209.0 Q 818.0 211.0 818.0 213.0 Q 818.0 215.0 818.0 217.0 Q 818.0 219.0 818.0 221.0 Q 818.0 223.0 818.0 225.0 Q 818.0 227.0 818.0 229.0 Q 818.0 231.0 818.0 233.0 Q 818.0 235.0 818.0 237.0 Q 818.0 239.0 818.0 241.0 Q 818.0 243.0 818.0 245.0 Q 818.0 247.0 818.0 249.0 Q 818.0 251.0 818.0 253.0 Q 818.0 255.0 818.0 257.0 Q 818.0 259.0 818.0 261.0 Q 818.0 263.0 818.0 265.0 Q 818.0 267.0 818.0 269.0 Q 818.0 271.0 818.0 273.0 Q 818.0 275.0 818.0 277.0 Q 818.0 279.0 818.0 281.0 Q 818.0 283.0 818.0 285.0 Q 818.0 287.0 818.0 289.0 Q 818.0 291.0 818.0 293.0 Q 818.0 295.0 818.0 297.0 Q 818.0 299.0 818.0 301.0 Q 818.0 303.0 818.0 305.0 Q 818.0 307.0 818.0 309.0 Q 818.0 311.0 818.0 313.0 Q 818.0 315.0 818.0 317.0 Q 818.0 319.0 818.0 321.0 Q 818.0 323.0 818.0 325.0 Q 818.0 327.0 818.0 329.0 Q 818.0 331.0 818.0 333.0 Q 818.0 335.0 818.0 337.0 Q 818.0 339.0 818.0 341.0 Q 818.0 343.0 818.0 345.0 Q 818.0 347.0 818.0 349.0 Q 818.0 351.0 818.0 353.0 Q 818.0 355.0 818.0 357.0 Q 818.0 359.0 818.0 361.0 Q 818.0 363.0 818.0 365.0 Q 818.0 367.0 818.0 369.0 Q 818.0 371.0 818.0 373.0 Q 818.0 375.0 818.0 377.0 Q 818.0 379.0 818.0 381.0 Q 818.0 383.0 818.0 385.0 Q 818.0 387.0 818.0 389.0 Q 818.0 391.0 818.0 393.0 Q 818.0 395.0 818.0 397.0 Q 818.0 399.0 818.0 401.0 Q 818.0 403.0 818.0 405.0 Q 818.0 407.0 818.0 409.0 Q 818.0 411.0 818.0 413.0 Q 818.0 415.0 818.0 417.0 Q 818.0 419.0 818.0 421.0 Q 818.0 423.0 818.0 425.0 Q 818.0 427.0 818.0 429.0 Q 818.0 431.0 818.0 433.0 Q 818.0 435.0 818.0 437.0 Q 818.0 439.0 818.0 441.0 Q 818.0 443.0 818.0 445.0 Q 818.0 447.0 818.0 449.0 Q 818.0 451.0 818.0 453.0 Q 818.0 455.0 818.0 457.0 Q 818.0 459.0 818.0 461.0 Q 818.0 463.0 818.0 465.0 Q 818.0 467.0 818.0 469.0 Q 818.0 471.0 818.0 473.0 Q 818.0 475.0 818.0 477.0 Q 818.0 479.0 818.0 481.0 Q 818.0 483.0 818.0 485.0 Q 818.0 487.0 818.0 489.0 Q 818.0 491.0 818.0 493.0 Q 818.0 495.0 818.0 497.0 Q 818.0 499.0 818.0 501.0 Q 818.0 503.0 818.0 505.0 Q 818.0 507.0 818.0 509.0 Q 818.0 511.0 818.0 513.0 Q 818.0 515.0 818.0 517.0 Q 818.0 519.0 818.0 521.0 Q 818.0 523.0 818.0 525.0 Q 818.0 527.0 818.0 529.0 Q 818.0 531.0 818.0 533.0 Q 818.0 535.0 818.0 537.0 Q 818.0 539.0 818.0 541.0 Q 818.0 543.0 818.0 545.0 Q 818.0 547.0 818.0 549.0 Q 818.0 551.0 818.0 553.0 Q 818.0 555.0 818.0 557.0 Q 818.0 559.0 818.0 561.0 Q 818.0 563.0 818.0 565.0 Q 818.0 567.0 818.0 569.0 Q 818.0 571.0 818.0 573.0 Q 818.0 575.0 818.0 577.0 Q 818.0 579.0 818.0 581.0 Q 818.0 583.0 818.0 585.0 Q 818.0 587.0 818.0 589.0 Q 818.0 591.0 818.0 593.0 Q 818.0 595.0 818.0 597.0 Q 818.0 599.0 818.0 601.0 Q 818.0 603.0 818.0 605.0 Q 818.0 607.0 818.0 609.0 Q 818.0 611.0 818.0 613.0 Q 818.0 615.0 818.0 617.0 Q 818.0 619.0 818.0 621.0 Q 818.0 623.0 818.0 625.0 Q 818.0 627.0 818.0 629.0 Q 818.0 631.0 818.0 633.0 Q 818.0 635.0 818.0 637.0 Q 818.0 639.0 818.0 641.0 Q 818.0 643.0 818.0 645.0 Q 818.0 647.0 818.0 649.0 Q 818.0 651.0 818.0 653.0 Q 818.0 655.0 818.0 657.0 Q 818.0 659.0 818.0 661.0 Q 818.0 663.0 818.0 665.0 Q 818.0 667.0 818.0 669.0 Q 818.0 671.0 818.0 673.0 Q 818.0 675.0 818.0 677.0 Q 818.0 679.0 818.0 681.0 Q 818.0 683.0 818.0 685.0 Q 818.0 687.0 818.0 689.0 Q 818.0 691.0 818.0 693.0 Q 818.0 695.0 818.0 697.0 Q 818.0 699.0 818.0 701.0 Q 818.0 703.0 818.0 705.0 Q 818.0 707.0 818.0 709.0 Q 818.0 711.0 818.0 713.0 Q 818.0 715.0 818.0 717.0 Q 818.0 719.0 818.0 721.0 Q 818.0 723.0 818.0 725.0 Q 818.0 727.0 818.0 729.0 Q 818.0 731.0 818.0 733.0 Q 818.0 735.0 818.0 737.0 Q 818.0 739.0 818.0 741.0 Q 818.0 743.0 818.0 745.0 Q 818.0 747.0 818.0 749.0 Q 818.0 751.0 818.0 753.0 Q 818.0 755.0 818.0 757.0 Q 818.0 759.0 818.0 761.0 Q 818.0 763.0 818.0 765.0 Q 818.0 767.0 818.0 769.0 Q 818.0 771.0 818.0 773.0 Q 818.0 775.0 818.0 777.0 Q 818.0 779.0 818.0 781.0 Q 818.0 783.0 818.0 785.0 Q 818.0 787.0 818.0 789.0 Q 818.0 791.0 818.0 793.0 Q 818.0 795.0 818.0 797.0 Q 818.0 799.0 818.0 801.0 Q 818.0 803.0 818.0 805.0 Q 818.0 807.0 818.0 809.0 Q 818.0 811.0 818.0 813.0 Q 818.0 815.0 818.0 817.0 Q 818.0 819.0 818.0 821.0 Q 818.0 823.0 818.0 825.0 Q 818.0 827.0 818.0 829.0 Q 818.0 831.0 818.0 833.0 Q 818.0 835.0 817.0 837.0 Q 816.0 839.0 816.0 841.0 Q 816.0 843.0 816.0 845.0 Q 816.0 847.0 816.0 849.0 Q 816.0 851.0 815.0 853.0 Q 814.0 855.0 814.0 857.0 Q 814.0 859.0 813.5 861.0 Q 813.0 863.0 813.0 865.0 Q 813.0 867.0 812.0 869.0 Q 811.0 871.0 811.0 873.0 Q 811.0 875.0 810.0 876.5 Q 809.0 878.0 809.0 880.0 Q 809.0 882.0 808.0 883.5 Q 807.0 885.0 806.5 887.0 Q 806.0 889.0 805.0 890.5 Q 804.0 892.0 803.5 894.0 Q 803.0 896.0 802.5 898.0 Q 802.0 900.0 801.0 902.0 Q 800.0 904.0 799.0 906.0 Q 798.0 908.0 797.0 910.0 Q 796.0 912.0 794.5 914.0 Q 793.0 916.0 792.0 917.5 Q 791.0 919.0 790.5 921.0 Q 790.0 923.0 789.5 924.5 Q 789.0 926.0 787.0 927.5 Q 785.0 929.0 784.5 931.0 Q 784.0 933.0 783.0 934.5 Q 782.0 936.0 780.5 937.5 Q 779.0 939.0 777.5 940.5 Q 776.0 942.0 775.0 943.5 Q 774.0 945.0 772.5 946.5 Q 771.0 948.0 770.0 950.0 Q 769.0 952.0 768.0 953.5 Q 767.0 955.0 765.5 956.5 Q 764.0 958.0 762.5 959.5 Q 761.0 961.0 759.5 962.0 Q 758.0 963.0 756.5 964.5 Q 755.0 966.0 754.0 967.5 Q 753.0 969.0 751.5 970.5 Q 750.0 972.0 748.5 973.0 Q 747.0 974.0 745.0 975.5 Q 743.0 977.0 741.5 978.0 Q 740.0 979.0 739.0 980.5 Q 738.0 982.0 736.0 983.0 Q 734.0 984.0 732.5 985.0 Q 731.0 986.0 729.0 987.0 Q 727.0 988.0 725.5 989.0 Q 724.0 990.0 723.0 991.5 Q 722.0 993.0 720.0 993.5 Q 718.0 994.0 716.5 995.0 Q 715.0 996.0 713.0 996.5 Q 711.0 997.0 709.5 998.0 Q 708.0 999.0 706.5 1000.0 Q 705.0 1001.0 703.5 1002.0 Q 702.0 1003.0 700.0 1003.5 Q 698.0 1004.0 696.5 1005.0 Q 695.0 1006.0 693.0 1007.0 Q 691.0 1008.0 689.5 1008.5 Q 688.0 1009.0 686.0 1009.5 Q 684.0 1010.0 682.5 1011.0 Q 681.0 1012.0 679.0 1012.0 Q 677.0 1012.0 675.0 1012.5 Q 673.0 1013.0 671.0 1014.0 Q 669.0 1015.0 667.0 1015.0 Q 665.0 1015.0 663.0 1016.0 Q 661.0 1017.0 659.0 1017.0 Q 657.0 1017.0 655.0 1018.0 Q 653.0 1019.0 651.0 1019.0 Q 649.0 1019.0 647.0 1019.0 Q 645.0 1019.0 643.0 1020.0 Q 641.0 1021.0 639.0 1021.0 Q 637.0 1021.0 635.0 1021.0 Q 633.0 1021.0 631.0 1021.0 Q 629.0 1021.0 627.0 1021.0 Q 625.0 1021.0 623.0 1021.0 Q 621.0 1021.0 619.0 1021.0 Q 617.0 1021.0 615.0 1021.0 Q 613.0 1021.0 611.0 1021.0 Q 609.0 1021.0 607.0 1021.0 Q 605.0 1021.0 603.0 1021.0 Q 601.0 1021.0 599.0 1021.0 Q 597.0 1021.0 595.0 1021.0 Q 593.0 1021.0 591.5 1020.0 Q 590.0 1019.0 588.0 1019.0 Q 586.0 1019.0 584.0 1019.0 Q 582.0 1019.0 580.0 1018.5 Q 578.0 1018.0 576.5 1017.5 Q 575.0 1017.0 573.0 1017.0 Q 571.0 1017.0 569.0 1016.0 Q 567.0 1015.0 565.0 1015.0 Q 563.0 1015.0 561.0 1014.0 Q 559.0 1013.0 557.0 1012.5 Q 555.0 1012.0 553.0 1012.0 Q 551.0 1012.0 549.5 1011.0 Q 548.0 1010.0 546.5 1009.0 Q 545.0 1008.0 543.0 1008.0 Q 541.0 1008.0 539.5 1007.0 Q 538.0 1006.0 536.0 1005.0 Q 534.0 1004.0 532.0 1003.5 Q 530.0 1003.0 528.5 1002.0 Q 527.0 1001.0 525.0 1000.0 Q 523.0 999.0 521.5 998.0 Q 520.0 997.0 518.0 996.5 Q 516.0 996.0 514.5 995.0 Q 513.0 994.0 511.5 993.0 Q 510.0 992.0 508.5 991.0 Q 507.0 990.0 505.5 989.0 Q 504.0 988.0 502.5 987.0 Q 501.0 986.0 499.0 985.0 Q 497.0 984.0 495.5 982.5 Q 494.0 981.0 492.5 979.5 Q 491.0 978.0 489.0 977.0 Q 487.0 976.0 485.5 974.5 Q 484.0 973.0 483.0 971.5 Q 482.0 970.0 480.5 969.0 Q 479.0 968.0 477.5 966.5 Q 476.0 965.0 474.0 963.0 Q 472.0 961.0 470.0 959.5 Q 468.0 958.0 466.5 956.5 Q 465.0 955.0 464.0 953.5 Q 463.0 952.0 461.5 950.5 Q 460.0 949.0 458.5 947.5 Q 457.0 946.0 455.0 944.0 Q 453.0 942.0 451.5 940.5 Q 450.0 939.0 448.0 937.0 Q 446.0 935.0 444.0 933.0 Q 442.0 931.0 440.0 929.0 Q 438.0 927.0 436.0 925.0 Q 434.0 923.0 432.0 921.5 Q 430.0 920.0 428.5 918.0 Q 427.0 916.0 425.0 914.0 Q 423.0 912.0 421.0 910.0 Q 419.0 908.0 417.0 906.0 Q 415.0 904.0 413.5 902.5 Q 412.0 901.0 410.0 899.0 Q 408.0 897.0 406.5 895.5 Q 405.0 894.0 403.5 892.5 Q 402.0 891.0 400.0 889.0 Q 398.0 887.0 396.5 885.5 Q 395.0 884.0 393.0 882.0 Q 391.0 880.0 389.5 878.5 Q 388.0 877.0 387.0 875.5 Q 386.0 874.0 384.5 873.0 Q 383.0 872.0 381.0 870.0 Q 379.0 868.0 378.0 866.5 Q 377.0 865.0 375.5 864.0 Q 374.0 863.0 372.5 861.5 Q 371.0 860.0 369.5 858.5 Q 368.0 857.0 367.0 855.5 Q 366.0 854.0 364.5 853.0 Q 363.0 852.0 361.5 850.5 Q 360.0 849.0 358.5 847.5 Q 357.0 846.0 356.0 844.5 Q 355.0 843.0 353.0 841.5 Q 351.0 840.0 349.5 838.5 Q 348.0 837.0 347.0 835.5 Q 346.0 834.0 344.0 832.5 Q 342.0 831.0 340.5 829.5 Q 339.0 828.0 338.0 826.5 Q 337.0 825.0 335.5 824.0 Q 334.0 823.0 332.5 821.5 Q 331.0 820.0 329.5 818.5 Q 328.0 817.0 327.0 815.5 Q 326.0 814.0 324.5 812.5 Q 323.0 811.0 321.5 810.0 Q 320.0 809.0 318.5 807.5 Q 317.0 806.0 316.0 804.5 Q 315.0 803.0 313.5 801.5 Q 312.0 800.0 310.5 799.0 Q 309.0 798.0 307.5 796.5 Q 306.0 795.0 304.5 793.5 Q 303.0 792.0 302.0 790.5 Q 301.0 789.0 299.5 788.0 Q 298.0 787.0 296.5 785.5 Q 295.0 784.0 293.5 782.5 Q 292.0 781.0 291.0 779.5 Q 290.0 778.0 288.5 777.0 Q 287.0 776.0 285.5 774.5 Q 284.0 773.0 282.5 771.5 Q 281.0 770.0 280.0 768.5 Q 279.0 767.0 277.5 765.5 Q 276.0 764.0 274.5 763.0 Q 273.0 762.0 271.5 760.5 Q 270.0 759.0 269.0 757.5 Q 268.0 756.0 266.5 754.5 Q 265.0 753.0 263.5 751.0 Q 262.0 749.0 260.0 747.5 Q 258.0 746.0 256.5 744.0 Q 255.0 742.0 253.0 740.5 Q 251.0 739.0 249.5 737.5 Q 248.0 736.0 247.0 734.5 Q 246.0 733.0 244.5 731.5 Q 243.0 730.0 241.5 729.0 Q 240.0 728.0 238.5 726.5 Q 237.0 725.0 235.5 723.0 Q 234.0 721.0 232.0 719.0 Q 230.0 717.0 228.5 716.0 Q 227.0 715.0 225.5 714.0 Q 224.0 713.0 222.5 712.0 Q 221.0 711.0 219.0 711.0 Q 217.0 711.0 216.0 713.0 Q 215.0 715.0 215.0 717.0 Q 215.0 719.0 215.0 721.0 Q 215.0 723.0 216.0 725.0 Q 217.0 727.0 217.0 729.0 Q 217.0 731.0 217.0 733.0 Q 217.0 735.0 217.0 737.0 Q 217.0 739.0 217.0 741.0 Q 217.0 743.0 217.0 745.0 Q 217.0 747.0 217.0 749.0 Q 217.0 751.0 217.0 753.0 Q 217.0 755.0 217.0 757.0 Q 217.0 759.0 217.0 761.0 Q 217.0 763.0 217.0 765.0 Q 217.0 767.0 217.0 769.0 Q 217.0 771.0 217.0 773.0 Q 217.0 775.0 217.0 777.0 Q 217.0 779.0 217.0 781.0 Q 217.0 783.0 217.0 785.0 Q 217.0 787.0 217.0 789.0 Q 217.0 791.0 217.0 793.0 Q 217.0 795.0 217.0 797.0 Q 217.0 799.0 217.0 801.0 Q 217.0 803.0 217.0 805.0 Q 217.0 807.0 217.0 809.0 Q 217.0 811.0 217.0 813.0 Q 217.0 815.0 217.0 817.0 Q 217.0 819.0 217.0 821.0 Q 217.0 823.0 217.0 825.0 Q 217.0 827.0 217.0 829.0 Q 217.0 831.0 217.0 833.0 Q 217.0 835.0 218.0 836.5 Q 219.0 838.0 219.0 840.0 Q 219.0 842.0 219.0 844.0 Q 219.0 846.0 219.0 848.0 Q 219.0 850.0 219.0 852.0 Q 219.0 854.0 219.0 856.0 Q 219.0 858.0 219.0 860.0 Q 219.0 862.0 220.0 864.0 Q 221.0 866.0 221.0 868.0 Q 221.0 870.0 221.0 872.0 Q 221.0 874.0 221.5 876.0 Q 222.0 878.0 222.0 880.0 Q 222.0 882.0 222.0 884.0 Q 222.0 886.0 223.0 887.5 Q 224.0 889.0 224.0 891.0 Q 224.0 893.0 224.0 895.0 Q 224.0 897.0 225.0 899.0 Q 226.0 901.0 226.0 903.0 Q 226.0 905.0 227.0 906.5 Q 228.0 908.0 228.0 910.0 Q 228.0 912.0 229.0 913.5 Q 230.0 915.0 230.0 917.0 Q 230.0 919.0 230.5 921.0 Q 231.0 923.0 231.0 925.0 Q 231.0 927.0 232.0 929.0 Q 233.0 931.0 233.5 932.5 Q 234.0 934.0 234.5 936.0 Q 235.0 938.0 235.5 940.0 Q 236.0 942.0 236.5 944.0 Q 237.0 946.0 238.0 947.5 Q 239.0 949.0 239.5 951.0 Q 240.0 953.0 240.0 955.0 Q 240.0 957.0 241.0 959.0 Q 242.0 961.0 243.0 962.5 Q 244.0 964.0 244.5 966.0 Q 245.0 968.0 245.5 970.0 Q 246.0 972.0 247.0 974.0 Q 248.0 976.0 249.0 977.5 Q 250.0 979.0 250.5 981.0 Q 251.0 983.0 251.5 985.0 Q 252.0 987.0 253.0 988.5 Q 254.0 990.0 254.5 992.0 Q 255.0 994.0 256.0 995.5 Q 257.0 997.0 258.0 998.5 Q 259.0 1000.0 259.5 1002.0 Q 260.0 1004.0 261.0 1005.5 Q 262.0 1007.0 263.0 1008.5 Q 264.0 1010.0 265.0 1011.5 Q 266.0 1013.0 266.5 1014.5 Q 267.0 1016.0 267.5 1018.0 Q 268.0 1020.0 269.5 1022.0 Q 271.0 1024.0 272.0 1026.0 Q 273.0 1028.0 274.0 1029.5 Q 275.0 1031.0 276.0 1032.5 Q 277.0 1034.0 278.0 1036.0 Q 279.0 1038.0 280.0 1039.5 Q 281.0 1041.0 282.0 1043.0 Q 283.0 1045.0 284.5 1046.5 Q 286.0 1048.0 287.0 1049.5 Q 288.0 1051.0 288.5 1053.0 Q 289.0 1055.0 291.0 1057.0 Q 293.0 1059.0 294.0 1060.5 Q 295.0 1062.0 296.0 1063.5 Q 297.0 1065.0 298.5 1067.0 Q 300.0 1069.0 301.0 1070.5 Q 302.0 1072.0 303.0 1073.5 Q 304.0 1075.0 305.5 1077.0 Q 307.0 1079.0 308.5 1080.0 Q 310.0 1081.0 311.0 1083.0 Q 312.0 1085.0 313.5 1086.5 Q 315.0 1088.0 316.5 1089.5 Q 318.0 1091.0 319.0 1092.5 Q 320.0 1094.0 321.5 1095.5 Q 323.0 1097.0 324.5 1098.5 Q 326.0 1100.0 327.0 1101.5 Q 328.0 1103.0 329.5 1104.5 Q 331.0 1106.0 332.5 1107.0 Q 334.0 1108.0 335.0 1110.0 Q 336.0 1112.0 337.5 1113.0 Q 339.0 1114.0 340.5 1115.5 Q 342.0 1117.0 343.5 1118.5 Q 345.0 1120.0 346.0 1121.5 Q 347.0 1123.0 349.0 1124.5 Q 351.0 1126.0 352.5 1127.0 Q 354.0 1128.0 355.5 1129.5 Q 357.0 1131.0 358.5 1132.5 Q 360.0 1134.0 362.0 1135.0 Q 364.0 1136.0 365.0 1137.5 Q 366.0 1139.0 368.0 1140.5 Q 370.0 1142.0 372.0 1143.5 Q 374.0 1145.0 375.0 1146.5 Q 376.0 1148.0 378.0 1149.0 Q 380.0 1150.0 381.5 1151.0 Q 383.0 1152.0 385.0 1153.5 Q 387.0 1155.0 388.5 1156.0 Q 390.0 1157.0 391.5 1158.0 Q 393.0 1159.0 394.5 1160.5 Q 396.0 1162.0 398.0 1163.0 Q 400.0 1164.0 401.5 1165.0 Q 403.0 1166.0 404.5 1167.0 Q 406.0 1168.0 407.5 1169.0 Q 409.0 1170.0 411.0 1171.5 Q 413.0 1173.0 414.5 1174.0 Q 416.0 1175.0 417.5 1176.0 Q 419.0 1177.0 420.5 1178.0 Q 422.0 1179.0 423.5 1180.0 Q 425.0 1181.0 427.0 1181.5 Q 429.0 1182.0 430.5 1183.0 Q 432.0 1184.0 433.5 1185.0 Q 435.0 1186.0 437.0 1187.0 Q 439.0 1188.0 441.0 1189.5 Q 443.0 1191.0 445.0 1192.0 Q 447.0 1193.0 449.0 1193.5 Q 451.0 1194.0 452.5 1195.0 Q 454.0 1196.0 456.0 1197.0 Q 458.0 1198.0 460.0 1199.0 Q 462.0 1200.0 464.0 1200.5 Q 466.0 1201.0 468.0 1202.0 Q 470.0 1203.0 471.5 1203.5 Q 473.0 1204.0 474.5 1205.0 Q 476.0 1206.0 478.0 1207.0 Q 480.0 1208.0 482.0 1209.0 Q 484.0 1210.0 486.0 1210.0 Q 488.0 1210.0 490.0 1210.5 Q 492.0 1211.0 493.5 1212.0 Q 495.0 1213.0 496.5 1214.0 Q 498.0 1215.0 500.0 1215.0 Q 502.0 1215.0 503.5 1216.0 Q 505.0 1217.0 507.0 1217.5 Q 509.0 1218.0 511.0 1218.5 Q 513.0 1219.0 515.0 1219.5 Q 517.0 1220.0 519.0 1220.5 Q 521.0 1221.0 522.5 1221.5 Q 524.0 1222.0 526.0 1222.5 Q 528.0 1223.0 529.5 1223.5 Q 531.0 1224.0 533.0 1224.0 Q 535.0 1224.0 537.0 1225.0 Q 539.0 1226.0 541.0 1226.0 Q 543.0 1226.0 544.5 1227.0 Q 546.0 1228.0 548.0 1228.0 Q 550.0 1228.0 552.0 1228.5 Q 554.0 1229.0 556.0 1229.5 Q 558.0 1230.0 560.0 1230.5 Q 562.0 1231.0 564.0 1231.0 Q 566.0 1231.0 568.0 1231.0 Q 570.0 1231.0 572.0 1231.5 Q 574.0 1232.0 576.0 1232.5 Q 578.0 1233.0 580.0 1233.0 Q 582.0 1233.0 584.0 1233.0 Q 586.0 1233.0 588.0 1233.5 Q 590.0 1234.0 592.0 1234.5 Q 594.0 1235.0 596.0 1235.0 Q 598.0 1235.0 600.0 1235.0 Q 602.0 1235.0 604.0 1235.0 Q 606.0 1235.0 608.0 1235.0 Q 610.0 1235.0 612.0 1235.0 Q 614.0 1235.0 616.0 1235.0 Q 618.0 1235.0 620.0 1235.0 Q 622.0 1235.0 624.0 1236.0 Q 626.0 1237.0 628.0 1237.0 Q 630.0 1237.0 632.0 1237.0 Q 634.0 1237.0 636.0 1237.0 Q 638.0 1237.0 640.0 1237.0 Q 642.0 1237.0 644.0 1237.0 Q 646.0 1237.0 648.0 1236.5 Q 650.0 1236.0 652.0 1235.5 Q 654.0 1235.0 656.0 1235.0 Q 658.0 1235.0 660.0 1235.0 Q 662.0 1235.0 664.0 1235.0 Q 666.0 1235.0 668.0 1235.0 Q 670.0 1235.0 672.0 1235.0 Q 674.0 1235.0 676.0 1235.0 Q 678.0 1235.0 680.0 1234.0 Q 682.0 1233.0 684.0 1233.0 Q 686.0 1233.0 688.0 1233.0 Q 690.0 1233.0 692.0 1233.0 Q 694.0 1233.0 695.5 1232.0 Q 697.0 1231.0 699.0 1231.0 Q 701.0 1231.0 703.0 1231.0 Q 705.0 1231.0 707.0 1230.5 Q 709.0 1230.0 711.0 1230.0 Q 713.0 1230.0 715.0 1229.5 Q 717.0 1229.0 719.0 1228.5 Q 721.0 1228.0 723.0 1228.0 Q 725.0 1228.0 726.5 1227.0 Q 728.0 1226.0 730.0 1226.0 Q 732.0 1226.0 733.5 1225.0 Q 735.0 1224.0 737.0 1224.0 Q 739.0 1224.0 740.5 1223.5 Q 742.0 1223.0 744.0 1222.5 Q 746.0 1222.0 748.0 1221.5 Q 750.0 1221.0 752.0 1220.5 Q 754.0 1220.0 756.0 1219.5 Q 758.0 1219.0 760.0 1218.0 Q 762.0 1217.0 764.0 1217.0 Q 766.0 1217.0 768.0 1216.0 Q 770.0 1215.0 771.5 1214.5 Q 773.0 1214.0 775.0 1213.5 Q 777.0 1213.0 779.0 1212.0 Q 781.0 1211.0 783.0 1210.5 Q 785.0 1210.0 787.0 1209.0 Q 789.0 1208.0 791.0 1207.0 Q 793.0 1206.0 795.0 1206.0 Q 797.0 1206.0 798.5 1205.0 Q 800.0 1204.0 802.0 1203.0 Q 804.0 1202.0 806.0 1201.5 Q 808.0 1201.0 810.0 1200.0 Q 812.0 1199.0 813.5 1198.0 Q 815.0 1197.0 816.5 1196.0 Q 818.0 1195.0 819.5 1194.0 Q 821.0 1193.0 823.0 1192.5 Q 825.0 1192.0 827.0 1191.0 Q 829.0 1190.0 830.5 1189.0 Q 832.0 1188.0 833.5 1187.5 Q 835.0 1187.0 836.5 1186.0 Q 838.0 1185.0 840.0 1183.5 Q 842.0 1182.0 844.0 1181.5 Q 846.0 1181.0 848.0 1180.0 Q 850.0 1179.0 851.5 1178.0 Q 853.0 1177.0 854.5 1176.0 Q 856.0 1175.0 857.5 1174.0 Q 859.0 1173.0 860.5 1172.0 Q 862.0 1171.0 864.0 1169.5 Q 866.0 1168.0 867.5 1167.0 Q 869.0 1166.0 870.5 1165.0 Q 872.0 1164.0 874.0 1163.0 Q 876.0 1162.0 877.5 1160.5 Q 879.0 1159.0 880.5 1158.0 Q 882.0 1157.0 884.0 1156.0 Q 886.0 1155.0 887.5 1153.5 Q 889.0 1152.0 891.0 1151.0 Q 893.0 1150.0 894.0 1148.5 Q 895.0 1147.0 897.0 1145.5 Q 899.0 1144.0 900.5 1143.0 Q 902.0 1142.0 903.5 1140.5 Q 905.0 1139.0 906.5 1138.0 Q 908.0 1137.0 909.5 1136.0 Q 911.0 1135.0 913.0 1133.0 Q 915.0 1131.0 916.5 1129.5 Q 918.0 1128.0 919.5 1126.5 Q 921.0 1125.0 922.5 1124.0 Q 924.0 1123.0 926.0 1121.0 Q 928.0 1119.0 929.5 1118.0 Q 931.0 1117.0 932.5 1115.5 Q 934.0 1114.0 935.0 1112.5 Q 936.0 1111.0 937.5 1109.5 Q 939.0 1108.0 940.5 1106.5 Q 942.0 1105.0 943.5 1103.0 Q 945.0 1101.0 946.0 1099.5 Q 947.0 1098.0 949.0 1096.5 Q 951.0 1095.0 952.5 1093.0 Q 954.0 1091.0 955.0 1089.5 Q 956.0 1088.0 957.5 1086.5 Q 959.0 1085.0 960.5 1084.0 Q 962.0 1083.0 962.5 1081.0 Q 963.0 1079.0 965.0 1077.5 Q 967.0 1076.0 968.0 1074.5 Q 969.0 1073.0 970.0 1071.0 Q 971.0 1069.0 972.5 1067.5 Q 974.0 1066.0 975.0 1064.0 Q 976.0 1062.0 977.5 1060.5 Q 979.0 1059.0 980.0 1057.5 Q 981.0 1056.0 982.0 1054.5 Q 983.0 1053.0 984.5 1051.0 Q 986.0 1049.0 987.5 1047.0 Q 989.0 1045.0 990.0 1043.0 Q 991.0 1041.0 992.5 1039.0 Q 994.0 1037.0 995.0 1035.5 Q 996.0 1034.0 996.5 1032.0 Q 997.0 1030.0 998.5 1028.5 Q 1000.0 1027.0 1000.5 1025.0 Q 1001.0 1023.0 1002.0 1021.5 Q 1003.0 1020.0 1004.0 1018.5 Q 1005.0 1017.0 1006.0 1015.0 Q 1007.0 1013.0 1008.0 1011.0 Q 1009.0 1009.0 1010.5 1007.0 Q 1012.0 1005.0 1012.5 1003.0 Q 1013.0 1001.0 1014.0 999.5 Q 1015.0 998.0 1015.5 996.0 Q 1016.0 994.0 1017.0 992.0 Q 1018.0 990.0 1019.0 988.0 Q 1020.0 986.0 1020.5 984.0 Q 1021.0 982.0 1022.0 980.0 Q 1023.0 978.0 1024.0 976.5 Q 1025.0 975.0 1026.0 973.5 Q 1027.0 972.0 1027.0 970.0 Q 1027.0 968.0 1028.0 966.5 Q 1029.0 965.0 1029.5 963.0 Q 1030.0 961.0 1031.0 959.5 Q 1032.0 958.0 1032.0 956.0 Q 1032.0 954.0 1033.0 952.5 Q 1034.0 951.0 1034.5 949.0 Q 1035.0 947.0 1035.5 945.0 Q 1036.0 943.0 1037.0 941.0 Q 1038.0 939.0 1038.0 937.0 Q 1038.0 935.0 1038.5 933.0 Q 1039.0 931.0 1040.0 929.5 Q 1041.0 928.0 1041.0 926.0 Q 1041.0 924.0 1042.0 922.0 Q 1043.0 920.0 1043.0 918.0 Q 1043.0 916.0 1044.0 914.5 Q 1045.0 913.0 1045.0 911.0 Q 1045.0 909.0 1046.0 907.0 Q 1047.0 905.0 1047.0 903.0 Q 1047.0 901.0 1047.5 899.0 Q 1048.0 897.0 1048.5 895.0 Q 1049.0 893.0 1049.0 891.0 Q 1049.0 889.0 1049.5 887.0 Q 1050.0 885.0 1050.0 883.0 Q 1050.0 881.0 1050.0 879.0 Q 1050.0 877.0 1051.0 875.0 Q 1052.0 873.0 1052.0 871.0 Q 1052.0 869.0 1052.0 867.0 Q 1052.0 865.0 1052.0 863.0 Q 1052.0 861.0 1053.0 859.0 Q 1054.0 857.0 1054.0 855.0 Q 1054.0 853.0 1054.0 851.0 Q 1054.0 849.0 1054.0 847.0 Q 1054.0 845.0 1054.0 843.0 Q 1054.0 841.0 1054.5 839.0 Q 1055.0 837.0 1055.5 835.0 Q 1056.0 833.0 1056.0 831.0 Q 1056.0 829.0 1056.0 827.0 Q 1056.0 825.0 1056.0 823.0 Q 1056.0 821.0 1056.0 819.0 Q 1056.0 817.0 1056.0 815.0 Q 1056.0 813.0 1056.0 811.0 Q 1056.0 809.0 1056.0 807.0 Q 1056.0 805.0 1056.0 803.0 Q 1056.0 801.0 1056.0 799.0 Q 1056.0 797.0 1056.0 795.0 Q 1056.0 793.0 1056.0 791.0 Q 1056.0 789.0 1056.0 787.0 Q 1056.0 785.0 1056.0 783.0 Q 1056.0 781.0 1056.0 779.0 Q 1056.0 777.0 1056.0 775.0 Q 1056.0 773.0 1056.0 771.0 Q 1056.0 769.0 1056.0 767.0 Q 1056.0 765.0 1056.0 763.0 Q 1056.0 761.0 1056.0 759.0 Q 1056.0 757.0 1056.0 755.0 Q 1056.0 753.0 1056.0 751.0 Q 1056.0 749.0 1056.0 747.0 Q 1056.0 745.0 1056.0 743.0 Q 1056.0 741.0 1056.0 739.0 Q 1056.0 737.0 1056.0 735.0 Q 1056.0 733.0 1056.0 731.0 Q 1056.0 729.0 1056.0 727.0 Q 1056.0 725.0 1056.0 723.0 Q 1056.0 721.0 1056.0 719.0 Q 1056.0 717.0 1056.0 715.0 Q 1056.0 713.0 1056.0 711.0 Q 1056.0 709.0 1056.0 707.0 Q 1056.0 705.0 1056.0 703.0 Q 1056.0 701.0 1056.0 699.0 Q 1056.0 697.0 1056.0 695.0 Q 1056.0 693.0 1056.0 691.0 Q 1056.0 689.0 1056.0 687.0 Q 1056.0 685.0 1056.0 683.0 Q 1056.0 681.0 1056.0 679.0 Q 1056.0 677.0 1056.0 675.0 Q 1056.0 673.0 1056.0 671.0 Q 1056.0 669.0 1056.0 667.0 Q 1056.0 665.0 1056.0 663.0 Q 1056.0 661.0 1056.0 659.0 Q 1056.0 657.0 1056.0 655.0 Q 1056.0 653.0 1056.0 651.0 Q 1056.0 649.0 1056.0 647.0 Q 1056.0 645.0 1056.0 643.0 Q 1056.0 641.0 1056.0 639.0 Q 1056.0 637.0 1056.0 635.0 Q 1056.0 633.0 1056.0 631.0 Q 1056.0 629.0 1056.0 627.0 Q 1056.0 625.0 1056.0 623.0 Q 1056.0 621.0 1056.0 619.0 Q 1056.0 617.0 1056.0 615.0 Q 1056.0 613.0 1056.0 611.0 Q 1056.0 609.0 1056.0 607.0 Q 1056.0 605.0 1056.0 603.0 Q 1056.0 601.0 1056.0 599.0 Q 1056.0 597.0 1056.0 595.0 Q 1056.0 593.0 1056.0 591.0 Q 1056.0 589.0 1056.0 587.0 Q 1056.0 585.0 1056.0 583.0 Q 1056.0 581.0 1056.0 579.0 Q 1056.0 577.0 1056.0 575.0 Q 1056.0 573.0 1056.0 571.0 Q 1056.0 569.0 1056.0 567.0 Q 1056.0 565.0 1056.0 563.0 Q 1056.0 561.0 1056.0 559.0 Q 1056.0 557.0 1056.0 555.0 Q 1056.0 553.0 1056.0 551.0 Q 1056.0 549.0 1056.0 547.0 Q 1056.0 545.0 1056.0 543.0 Q 1056.0 541.0 1056.0 539.0 Q 1056.0 537.0 1056.0 535.0 Q 1056.0 533.0 1056.0 531.0 Q 1056.0 529.0 1056.0 527.0 Q 1056.0 525.0 1056.0 523.0 Q 1056.0 521.0 1056.0 519.0 Q 1056.0 517.0 1056.0 515.0 Q 1056.0 513.0 1056.0 511.0 Q 1056.0 509.0 1056.0 507.0 Q 1056.0 505.0 1056.0 503.0 Q 1056.0 501.0 1056.0 499.0 Q 1056.0 497.0 1056.0 495.0 Q 1056.0 493.0 1056.0 491.0 Q 1056.0 489.0 1056.0 487.0 Q 1056.0 485.0 1056.0 483.0 Q 1056.0 481.0 1056.0 479.0 Q 1056.0 477.0 1056.0 475.0 Q 1056.0 473.0 1056.0 471.0 Q 1056.0 469.0 1056.0 467.0 Q 1056.0 465.0 1056.0 463.0 Q 1056.0 461.0 1056.0 459.0 Q 1056.0 457.0 1056.0 455.0 Q 1056.0 453.0 1056.0 451.0 Q 1056.0 449.0 1056.0 447.0 Q 1056.0 445.0 1056.0 443.0 Q 1056.0 441.0 1056.0 439.0 Q 1056.0 437.0 1056.0 435.0 Q 1056.0 433.0 1056.0 431.0 Q 1056.0 429.0 1056.0 427.0 Q 1056.0 425.0 1056.0 423.0 Q 1056.0 421.0 1056.0 419.0 Q 1056.0 417.0 1056.0 415.0 Q 1056.0 413.0 1056.0 411.0 Q 1056.0 409.0 1056.0 407.0 Q 1056.0 405.0 1056.0 403.0 Q 1056.0 401.0 1056.0 399.0 Q 1056.0 397.0 1056.0 395.0 Q 1056.0 393.0 1056.0 391.0 Q 1056.0 389.0 1056.0 387.0 Q 1056.0 385.0 1056.0 383.0 Q 1056.0 381.0 1056.0 379.0 Q 1056.0 377.0 1056.0 375.0 Q 1056.0 373.0 1056.0 371.0 Q 1056.0 369.0 1056.0 367.0 Q 1056.0 365.0 1056.0 363.0 Q 1056.0 361.0 1056.0 359.0 Q 1056.0 357.0 1056.0 355.0 Q 1056.0 353.0 1056.0 351.0 Q 1056.0 349.0 1056.0 347.0 Q 1056.0 345.0 1056.0 343.0 Q 1056.0 341.0 1056.0 339.0 Q 1056.0 337.0 1056.0 335.0 Q 1056.0 333.0 1056.0 331.0 Q 1056.0 329.0 1056.0 327.0 Q 1056.0 325.0 1056.0 323.0 Q 1056.0 321.0 1056.0 319.0 Q 1056.0 317.0 1056.0 315.0 Q 1056.0 313.0 1056.0 311.0 Q 1056.0 309.0 1056.0 307.0 Q 1056.0 305.0 1056.0 303.0 Q 1056.0 301.0 1056.0 299.0 Q 1056.0 297.0 1056.0 295.0 Q 1056.0 293.0 1056.0 291.0 Q 1056.0 289.0 1056.0 287.0 Q 1056.0 285.0 1056.0 283.0 Q 1056.0 281.0 1056.0 279.0 Q 1056.0 277.0 1056.0 275.0 Q 1056.0 273.0 1056.0 271.0 Q 1056.0 269.0 1056.0 267.0 Q 1056.0 265.0 1056.0 263.0 Q 1056.0 261.0 1056.0 259.0 Q 1056.0 257.0 1056.0 255.0 Q 1056.0 253.0 1056.0 251.0 Q 1056.0 249.0 1056.0 247.0 Q 1056.0 245.0 1056.0 243.0 Q 1056.0 241.0 1056.0 239.0 Q 1056.0 237.0 1056.0 235.0 Q 1056.0 233.0 1056.0 231.0 Q 1056.0 229.0 1056.0 227.0 Q 1056.0 225.0 1056.0 223.0 Q 1056.0 221.0 1056.0 219.0 Q 1056.0 217.0 1056.0 215.0 Q 1056.0 213.0 1056.0 211.0 Q 1056.0 209.0 1056.0 207.0 Q 1056.0 205.0 1056.0 203.0 Q 1056.0 201.0 1056.0 199.0 Q 1056.0 197.0 1056.0 195.0 Q 1056.0 193.0 1056.0 191.0 Q 1056.0 189.0 1056.0 187.0 Q 1056.0 185.0 1056.0 183.0 Q 1056.0 181.0 1056.0 179.0 Q 1056.0 177.0 1056.0 175.0 Q 1056.0 173.0 1056.0 171.0 Q 1056.0 169.0 1056.0 167.0 Q 1056.0 165.0 1056.0 163.0 Q 1056.0 161.0 1056.0 159.0 Q 1056.0 157.0 1056.0 155.0 Q 1056.0 153.0 1056.0 151.0 Q 1056.0 149.0 1056.0 147.0 Q 1056.0 145.0 1056.0 143.0 Q 1056.0 141.0 1056.0 139.0 Q 1056.0 137.0 1056.0 135.0 Q 1056.0 133.0 1056.0 131.0 Q 1056.0 129.0 1056.0 127.0 Q 1056.0 125.0 1056.0 123.0 Q 1056.0 121.0 1056.0 119.0 Q 1056.0 117.0 1056.0 115.0 Q 1056.0 113.0 1056.0 111.0 Q 1056.0 109.0 1056.0 107.0 Q 1056.0 105.0 1056.0 103.0 Q 1056.0 101.0 1056.0 99.0 Q 1056.0 97.0 1056.0 95.0 Q 1056.0 93.0 1056.0 91.0 Q 1056.0 89.0 1056.0 87.0 Q 1056.0 85.0 1056.0 83.0 Q 1056.0 81.0 1056.0 79.0 Q 1056.0 77.0 1056.0 75.0 Q 1056.0 73.0 1056.0 71.0 Q 1056.0 69.0 1056.0 67.0 Q 1056.0 65.0 1056.0 63.0 Q 1056.0 61.0 1056.0 59.0 Q 1056.0 57.0 1056.0 55.0 Q 1056.0 53.0 1056.0 51.0 Q 1056.0 49.0 1056.0 47.0 Q 1056.0 45.0 1056.0 43.0 Q 1056.0 41.0 1056.0 39.0 Q 1056.0 37.0 1056.0 35.0 Q 1056.0 33.0 1054.5 31.5 Q 1053.0 30.0 1051.0 30.0 Q 1049.0 30.0 1047.0 29.5 Q 1045.0 29.0 1043.0 29.0 Q 1041.0 29.0 1039.0 29.0 Q 1037.0 29.0 1035.0 29.0 Q 1033.0 29.0 1031.0 29.0 Q 1029.0 29.0 1027.0 29.0 Q 1025.0 29.0 1023.0 29.0 Q 1021.0 29.0 1019.0 29.0 Q 1017.0 29.0 1015.0 29.0 Q 1013.0 29.0 1011.0 29.0 Q 1009.0 29.0 1007.0 29.0 Q 1005.0 29.0 1003.0 29.0 Q 1001.0 29.0 999.0 29.0 Q 997.0 29.0 995.0 29.0 Q 993.0 29.0 991.0 29.0 Q 989.0 29.0 987.0 29.0 Q 985.0 29.0 983.0 29.0 Q 981.0 29.0 979.0 29.0 Q 977.0 29.0 975.0 29.0 Q 973.0 29.0 971.0 29.0 Q 969.0 29.0 967.0 29.0 Q 965.0 29.0 963.0 29.0 Q 961.0 29.0 959.0 29.0 Q 957.0 29.0 955.0 29.0 Q 953.0 29.0 951.0 29.0 Q 949.0 29.0 947.0 29.0 Q 945.0 29.0 943.0 29.0 Q 941.0 29.0 939.0 29.0 Q 937.0 29.0 935.0 29.0 Q 933.0 29.0 931.0 29.0 Q 929.0 29.0 927.0 29.0 Q 925.0 29.0 923.0 29.0 Q 921.0 29.0 919.0 29.0 Q 917.0 29.0 915.0 29.0 Q 913.0 29.0 911.0 29.0 Q 909.0 29.0 907.0 29.0 Q 905.0 29.0 903.0 29.0 Q 901.0 29.0 899.0 29.0 Q 897.0 29.0 895.0 29.0 Q 893.0 29.0 891.0 29.0 Q 889.0 29.0 887.0 29.0 Q 885.0 29.0 883.0 29.0 Q 881.0 29.0 879.0 29.0 Q 877.0 29.0 875.0 29.0 Q 873.0 29.0 871.0 29.0 Q 869.0 29.0 867.0 29.0 Q 865.0 29.0 863.0 29.0 Q 861.0 29.0 859.0 29.0 Q 857.0 29.0 855.0 29.0 Q 853.0 29.0 851.0 29.0 Q 849.0 29.0 847.0 29.0 Q 845.0 29.0 843.0 29.0 Q 841.0 29.0 839.0 29.0 Q 837.0 29.0 835.0 29.0 Q 833.0 29.0 831.0 29.0 Q 829.0 29.0 828.5 29.0 Z" fill="#121212"/>
<path d="M 217.0 31.0 Q 217.0 31.0 217.0 33.0 Q 217.0 35.0 217.0 37.0 Q 217.0 39.0 217.0 41.0 Q 217.0 43.0 217.0 45.0 Q 217.0 47.0 217.0 49.0 Q 217.0 51.0 217.0 53.0 Q 217.0 55.0 217.0 57.0 Q 217.0 59.0 217.0 61.0 Q 217.0 63.0 217.0 65.0 Q 217.0 67.0 217.0 69.0 Q 217.0 71.0 217.0 73.0 Q 217.0 75.0 217.0 77.0 Q 217.0 79.0 217.0 81.0 Q 217.0 83.0 217.0 85.0 Q 217.0 87.0 217.0 89.0 Q 217.0 91.0 217.0 93.0 Q 217.0 95.0 217.0 97.0 Q 217.0 99.0 217.0 101.0 Q 217.0 103.0 217.0 105.0 Q 217.0 107.0 217.0 109.0 Q 217.0 111.0 217.0 113.0 Q 217.0 115.0 217.0 117.0 Q 217.0 119.0 217.0 121.0 Q 217.0 123.0 217.0 125.0 Q 217.0 127.0 217.0 129.0 Q 217.0 131.0 217.0 133.0 Q 217.0 135.0 217.0 137.0 Q 217.0 139.0 217.0 141.0 Q 217.0 143.0 217.0 145.0 Q 217.0 147.0 217.0 149.0 Q 217.0 151.0 217.0 153.0 Q 217.0 155.0 217.0 157.0 Q 217.0 159.0 217.0 161.0 Q 217.0 163.0 217.0 165.0 Q 217.0 167.0 217.0 169.0 Q 217.0 171.0 217.0 173.0 Q 217.0 175.0 217.0 177.0 Q 217.0 179.0 217.0 181.0 Q 217.0 183.0 217.0 185.0 Q 217.0 187.0 217.0 189.0 Q 217.0 191.0 217.0 193.0 Q 217.0 195.0 217.0 197.0 Q 217.0 199.0 217.0 201.0 Q 217.0 203.0 217.0 205.0 Q 217.0 207.0 217.0 209.0 Q 217.0 211.0 217.0 213.0 Q 217.0 215.0 217.0 217.0 Q 217.0 219.0 217.0 221.0 Q 217.0 223.0 217.0 225.0 Q 217.0 227.0 217.0 229.0 Q 217.0 231.0 217.0 233.0 Q 217.0 235.0 217.0 237.0 Q 217.0 239.0 217.0 241.0 Q 217.0 243.0 217.0 245.0 Q 217.0 247.0 217.0 249.0 Q 217.0 251.0 217.0 253.0 Q 217.0 255.0 217.0 257.0 Q 217.0 259.0 217.0 261.0 Q 217.0 263.0 217.0 265.0 Q 217.0 267.0 217.0 269.0 Q 217.0 271.0 217.0 273.0 Q 217.0 275.0 217.0 277.0 Q 217.0 279.0 217.0 281.0 Q 217.0 283.0 217.0 285.0 Q 217.0 287.0 217.0 289.0 Q 217.0 291.0 217.0 293.0 Q 217.0 295.0 217.0 297.0 Q 217.0 299.0 217.0 301.0 Q 217.0 303.0 217.0 305.0 Q 217.0 307.0 217.0 309.0 Q 217.0 311.0 217.0 313.0 Q 217.0 315.0 217.0 317.0 Q 217.0 319.0 217.0 321.0 Q 217.0 323.0 217.0 325.0 Q 217.0 327.0 217.0 329.0 Q 217.0 331.0 217.0 333.0 Q 217.0 335.0 217.0 337.0 Q 217.0 339.0 217.0 341.0 Q 217.0 343.0 217.0 345.0 Q 217.0 347.0 217.0 349.0 Q 217.0 351.0 217.0 353.0 Q 217.0 355.0 217.0 357.0 Q 217.0 359.0 217.0 361.0 Q 217.0 363.0 217.0 365.0 Q 217.0 367.0 217.0 369.0 Q 217.0 371.0 217.0 373.0 Q 217.0 375.0 217.0 377.0 Q 217.0 379.0 217.0 381.0 Q 217.0 383.0 217.0 385.0 Q 217.0 387.0 217.0 389.0 Q 217.0 391.0 217.0 393.0 Q 217.0 395.0 217.0 397.0 Q 217.0 399.0 217.0 401.0 Q 217.0 403.0 217.0 405.0 Q 217.0 407.0 217.0 409.0 Q 217.0 411.0 217.0 413.0 Q 217.0 415.0 217.0 417.0 Q 217.0 419.0 217.0 421.0 Q 217.0 423.0 217.0 425.0 Q 217.0 427.0 217.0 429.0 Q 217.0 431.0 217.0 433.0 Q 217.0 435.0 217.0 437.0 Q 217.0 439.0 217.0 441.0 Q 217.0 443.0 217.0 445.0 Q 217.0 447.0 217.0 449.0 Q 217.0 451.0 217.0 453.0 Q 217.0 455.0 217.0 457.0 Q 217.0 459.0 217.0 461.0 Q 217.0 463.0 217.0 465.0 Q 217.0 467.0 217.0 469.0 Q 217.0 471.0 217.0 473.0 Q 217.0 475.0 217.0 477.0 Q 217.0 479.0 217.0 481.0 Q 217.0 483.0 217.0 485.0 Q 217.0 487.0 217.0 489.0 Q 217.0 491.0 217.0 493.0 Q 217.0 495.0 217.0 497.0 Q 217.0 499.0 217.0 501.0 Q 217.0 503.0 217.0 505.0 Q 217.0 507.0 217.0 509.0 Q 217.0 511.0 217.0 513.0 Q 217.0 515.0 217.0 517.0 Q 217.0 519.0 217.0 521.0 Q 217.0 523.0 217.0 525.0 Q 217.0 527.0 217.0 529.0 Q 217.0 531.0 217.0 533.0 Q 217.0 535.0 217.0 537.0 Q 217.0 539.0 217.0 541.0 Q 217.0 543.0 217.0 545.0 Q 217.0 547.0 217.0 549.0 Q 217.0 551.0 217.0 553.0 Q 217.0 555.0 217.0 557.0 Q 217.0 559.0 217.0 561.0 Q 217.0 563.0 217.0 565.0 Q 217.0 567.0 217.0 569.0 Q 217.0 571.0 217.0 573.0 Q 217.0 575.0 217.0 577.0 Q 217.0 579.0 217.0 581.0 Q 217.0 583.0 217.0 585.0 Q 217.0 587.0 217.0 589.0 Q 217.0 591.0 217.0 593.0 Q 217.0 595.0 217.0 597.0 Q 217.0 599.0 217.0 601.0 Q 217.0 603.0 217.0 605.0 Q 217.0 607.0 217.0 609.0 Q 217.0 611.0 217.0 613.0 Q 217.0 615.0 217.0 617.0 Q 217.0 619.0 217.0 621.0 Q 217.0 623.0 217.0 625.0 Q 217.0 627.0 217.0 629.0 Q 217.0 631.0 217.0 633.0 Q 217.0 635.0 217.0 637.0 Q 217.0 639.0 217.0 641.0 Q 217.0 643.0 217.0 645.0 Q 217.0 647.0 219.0 648.0 Q 221.0 649.0 222.5 651.0 Q 224.0 653.0 225.5 654.5 Q 227.0 656.0 229.0 657.5 Q 231.0 659.0 232.0 660.5 Q 233.0 662.0 234.0 663.5 Q 235.0 665.0 236.5 666.0 Q 238.0 667.0 239.5 668.5 Q 241.0 670.0 243.0 671.5 Q 245.0 673.0 246.5 674.5 Q 248.0 676.0 249.0 677.5 Q 250.0 679.0 251.5 680.0 Q 253.0 681.0 254.5 682.5 Q 256.0 684.0 257.5 685.5 Q 259.0 687.0 260.0 688.5 Q 261.0 690.0 262.5 691.5 Q 264.0 693.0 265.5 694.0 Q 267.0 695.0 268.5 696.5 Q 270.0 698.0 272.0 700.0 Q 274.0 702.0 275.5 704.0 Q 277.0 706.0 278.5 707.0 Q 280.0 708.0 281.5 710.0 Q 283.0 712.0 284.5 714.0 Q 286.0 716.0 287.5 718.0 Q 289.0 720.0 290.5 721.0 Q 292.0 722.0 293.5 723.5 Q 295.0 725.0 296.0 726.5 Q 297.0 728.0 298.0 729.0 Q 299.0 730.0 300.5 731.5 Q 302.0 733.0 303.5 734.0 Q 305.0 735.0 306.5 737.0 Q 308.0 739.0 309.5 740.5 Q 311.0 742.0 312.5 743.0 Q 314.0 744.0 315.5 745.5 Q 317.0 747.0 319.0 749.0 Q 321.0 751.0 322.5 753.0 Q 324.0 755.0 326.0 756.5 Q 328.0 758.0 330.0 760.0 Q 332.0 762.0 333.5 763.5 Q 335.0 765.0 336.5 766.5 Q 338.0 768.0 340.0 770.0 Q 342.0 772.0 343.5 773.5 Q 345.0 775.0 347.0 777.0 Q 349.0 779.0 351.0 781.0 Q 353.0 783.0 355.0 785.0 Q 357.0 787.0 359.0 789.0 Q 361.0 791.0 363.0 793.0 Q 365.0 795.0 367.0 797.0 Q 369.0 799.0 370.0 800.5 Q 371.0 802.0 372.5 803.5 Q 374.0 805.0 375.5 806.5 Q 377.0 808.0 378.5 809.5 Q 380.0 811.0 381.5 812.0 Q 383.0 813.0 384.5 814.5 Q 386.0 816.0 387.5 818.0 Q 389.0 820.0 391.0 822.0 Q 393.0 824.0 394.0 825.5 Q 395.0 827.0 397.0 828.5 Q 399.0 830.0 400.5 832.0 Q 402.0 834.0 403.5 835.0 Q 405.0 836.0 406.5 838.0 Q 408.0 840.0 410.0 842.0 Q 412.0 844.0 414.0 845.5 Q 416.0 847.0 417.5 849.0 Q 419.0 851.0 420.5 852.5 Q 422.0 854.0 423.5 855.5 Q 425.0 857.0 427.0 859.0 Q 429.0 861.0 431.0 863.0 Q 433.0 865.0 434.5 866.5 Q 436.0 868.0 438.0 870.0 Q 440.0 872.0 442.0 874.0 Q 444.0 876.0 446.0 878.0 Q 448.0 880.0 450.0 881.5 Q 452.0 883.0 453.5 885.0 Q 455.0 887.0 457.0 889.0 Q 459.0 891.0 461.0 893.0 Q 463.0 895.0 465.0 897.0 Q 467.0 899.0 469.0 901.0 Q 471.0 903.0 473.0 905.0 Q 475.0 907.0 476.5 908.5 Q 478.0 910.0 479.0 911.5 Q 480.0 913.0 481.0 914.0 Q 482.0 915.0 483.0 916.5 Q 484.0 918.0 485.5 917.5 Q 487.0 917.0 487.0 915.0 Q 487.0 913.0 487.0 911.0 Q 487.0 909.0 487.0 907.0 Q 487.0 905.0 487.0 903.0 Q 487.0 901.0 487.0 899.0 Q 487.0 897.0 487.0 895.0 Q 487.0 893.0 487.0 891.0 Q 487.0 889.0 487.0 887.0 Q 487.0 885.0 487.0 883.0 Q 487.0 881.0 487.0 879.0 Q 487.0 877.0 487.0 875.0 Q 487.0 873.0 487.0 871.0 Q 487.0 869.0 487.0 867.0 Q 487.0 865.0 487.0 863.0 Q 487.0 861.0 487.0 859.0 Q 487.0 857.0 487.0 855.0 Q 487.0 853.0 487.0 851.0 Q 487.0 849.0 487.0 847.0 Q 487.0 845.0 487.0 843.0 Q 487.0 841.0 487.0 839.0 Q 487.0 837.0 487.0 835.0 Q 487.0 833.0 487.0 831.0 Q 487.0 829.0 487.0 827.0 Q 487.0 825.0 487.0 823.0 Q 487.0 821.0 487.0 819.0 Q 487.0 817.0 487.0 815.0 Q 487.0 813.0 487.0 811.0 Q 487.0 809.0 487.0 807.0 Q 487.0 805.0 487.0 803.0 Q 487.0 801.0 487.0 799.0 Q 487.0 797.0 487.0 795.0 Q 487.0 793.0 487.0 791.0 Q 487.0 789.0 487.0 787.0 Q 487.0 785.0 487.0 783.0 Q 487.0 781.0 487.0 779.0 Q 487.0 777.0 487.0 775.0 Q 487.0 773.0 487.0 771.0 Q 487.0 769.0 487.0 767.0 Q 487.0 765.0 487.0 763.0 Q 487.0 761.0 487.0 759.0 Q 487.0 757.0 487.0 755.0 Q 487.0 753.0 487.0 751.0 Q 487.0 749.0 487.0 747.0 Q 487.0 745.0 487.0 743.0 Q 487.0 741.0 487.0 739.0 Q 487.0 737.0 487.0 735.0 Q 487.0 733.0 487.0 731.0 Q 487.0 729.0 487.0 727.0 Q 487.0 725.0 487.0 723.0 Q 487.0 721.0 487.0 719.0 Q 487.0 717.0 487.0 715.0 Q 487.0 713.0 487.0 711.0 Q 487.0 709.0 487.0 707.0 Q 487.0 705.0 487.0 703.0 Q 487.0 701.0 487.0 699.0 Q 487.0 697.0 487.0 695.0 Q 487.0 693.0 487.0 691.0 Q 487.0 689.0 487.0 687.0 Q 487.0 685.0 487.0 683.0 Q 487.0 681.0 487.0 679.0 Q 487.0 677.0 487.0 675.0 Q 487.0 673.0 487.0 671.0 Q 487.0 669.0 487.0 667.0 Q 487.0 665.0 487.0 663.0 Q 487.0 661.0 487.0 659.0 Q 487.0 657.0 487.0 655.0 Q 487.0 653.0 487.0 651.0 Q 487.0 649.0 487.0 647.0 Q 487.0 645.0 487.0 643.0 Q 487.0 641.0 487.0 639.0 Q 487.0 637.0 487.0 635.0 Q 487.0 633.0 487.0 631.0 Q 487.0 629.0 487.0 627.0 Q 487.0 625.0 487.0 623.0 Q 487.0 621.0 487.0 619.0 Q 487.0 617.0 487.0 615.0 Q 487.0 613.0 487.0 611.0 Q 487.0 609.0 487.0 607.0 Q 487.0 605.0 487.0 603.0 Q 487.0 601.0 487.0 599.0 Q 487.0 597.0 487.0 595.0 Q 487.0 593.0 487.0 591.0 Q 487.0 589.0 487.0 587.0 Q 487.0 585.0 487.0 583.0 Q 487.0 581.0 487.0 579.0 Q 487.0 577.0 487.0 575.0 Q 487.0 573.0 487.0 571.0 Q 487.0 569.0 487.0 567.0 Q 487.0 565.0 487.0 563.0 Q 487.0 561.0 487.0 559.0 Q 487.0 557.0 487.0 555.0 Q 487.0 553.0 487.0 551.0 Q 487.0 549.0 487.0 547.0 Q 487.0 545.0 487.0 543.0 Q 487.0 541.0 487.0 539.0 Q 487.0 537.0 487.0 535.0 Q 487.0 533.0 487.0 531.0 Q 487.0 529.0 487.0 527.0 Q 487.0 525.0 487.0 523.0 Q 487.0 521.0 487.0 519.0 Q 487.0 517.0 487.0 515.0 Q 487.0 513.0 487.0 511.0 Q 487.0 509.0 487.0 507.0 Q 487.0 505.0 487.0 503.0 Q 487.0 501.0 487.0 499.0 Q 487.0 497.0 487.0 495.0 Q 487.0 493.0 487.0 491.0 Q 487.0 489.0 487.0 487.0 Q 487.0 485.0 487.0 483.0 Q 487.0 481.0 487.0 479.0 Q 487.0 477.0 487.0 475.0 Q 487.0 473.0 487.0 471.0 Q 487.0 469.0 487.0 467.0 Q 487.0 465.0 487.0 463.0 Q 487.0 461.0 487.0 459.0 Q 487.0 457.0 487.0 455.0 Q 487.0 453.0 487.0 451.0 Q 487.0 449.0 487.0 447.0 Q 487.0 445.0 487.0 443.0 Q 487.0 441.0 487.0 439.0 Q 487.0 437.0 487.0 435.0 Q 487.0 433.0 487.0 431.0 Q 487.0 429.0 487.0 427.0 Q 487.0 425.0 487.0 423.0 Q 487.0 421.0 487.0 419.0 Q 487.0 417.0 487.0 415.0 Q 487.0 413.0 487.0 411.0 Q 487.0 409.0 487.0 407.0 Q 487.0 405.0 487.0 403.0 Q 487.0 401.0 487.0 399.0 Q 487.0 397.0 487.0 395.0 Q 487.0 393.0 487.0 391.0 Q 487.0 389.0 487.0 387.0 Q 487.0 385.0 487.0 383.0 Q 487.0 381.0 487.0 379.0 Q 487.0 377.0 487.0 375.0 Q 487.0 373.0 487.0 371.0 Q 487.0 369.0 487.0 367.0 Q 487.0 365.0 487.0 363.0 Q 487.0 361.0 487.0 359.0 Q 487.0 357.0 487.0 355.0 Q 487.0 353.0 487.0 351.0 Q 487.0 349.0 487.0 347.0 Q 487.0 345.0 487.0 343.0 Q 487.0 341.0 487.0 339.0 Q 487.0 337.0 487.0 335.0 Q 487.0 333.0 487.0 331.0 Q 487.0 329.0 487.0 327.0 Q 487.0 325.0 487.0 323.0 Q 487.0 321.0 487.0 319.0 Q 487.0 317.0 487.0 315.0 Q 487.0 313.0 487.0 311.0 Q 487.0 309.0 487.0 307.0 Q 487.0 305.0 487.0 303.0 Q 487.0 301.0 487.0 299.0 Q 487.0 297.0 487.0 295.0 Q 487.0 293.0 487.0 291.0 Q 487.0 289.0 487.0 287.0 Q 487.0 285.0 487.0 283.0 Q 487.0 281.0 487.0 279.0 Q 487.0 277.0 487.0 275.0 Q 487.0 273.0 487.0 271.0 Q 487.0 269.0 487.0 267.0 Q 487.0 265.0 487.0 263.0 Q 487.0 261.0 487.0 259.0 Q 487.0 257.0 487.0 255.0 Q 487.0 253.0 487.0 251.0 Q 487.0 249.0 487.0 247.0 Q 487.0 245.0 487.0 243.0 Q 487.0 241.0 487.0 239.0 Q 487.0 237.0 487.0 235.0 Q 487.0 233.0 487.0 231.0 Q 487.0 229.0 487.0 227.0 Q 487.0 225.0 487.0 223.0 Q 487.0 221.0 487.0 219.0 Q 487.0 217.0 487.0 215.0 Q 487.0 213.0 487.0 211.0 Q 487.0 209.0 487.0 207.0 Q 487.0 205.0 487.0 203.0 Q 487.0 201.0 487.0 199.0 Q 487.0 197.0 487.0 195.0 Q 487.0 193.0 487.0 191.0 Q 487.0 189.0 487.0 187.0 Q 487.0 185.0 487.0 183.0 Q 487.0 181.0 487.0 179.0 Q 487.0 177.0 487.0 175.0 Q 487.0 173.0 487.0 171.0 Q 487.0 169.0 487.0 167.0 Q 487.0 165.0 487.0 163.0 Q 487.0 161.0 487.0 159.0 Q 487.0 157.0 487.0 155.0 Q 487.0 153.0 487.0 151.0 Q 487.0 149.0 487.0 147.0 Q 487.0 145.0 487.0 143.0 Q 487.0 141.0 487.0 139.0 Q 487.0 137.0 487.0 135.0 Q 487.0 133.0 487.0 131.0 Q 487.0 129.0 487.0 127.0 Q 487.0 125.0 487.0 123.0 Q 487.0 121.0 487.0 119.0 Q 487.0 117.0 487.0 115.0 Q 487.0 113.0 487.0 111.0 Q 487.0 109.0 487.0 107.0 Q 487.0 105.0 487.0 103.0 Q 487.0 101.0 487.0 99.0 Q 487.0 97.0 487.0 95.0 Q 487.0 93.0 487.0 91.0 Q 487.0 89.0 487.0 87.0 Q 487.0 85.0 487.0 83.0 Q 487.0 81.0 487.0 79.0 Q 487.0 77.0 487.0 75.0 Q 487.0 73.0 487.0 71.0 Q 487.0 69.0 487.0 67.0 Q 487.0 65.0 487.0 63.0 Q 487.0 61.0 487.0 59.0 Q 487.0 57.0 487.0 55.0 Q 487.0 53.0 487.0 51.0 Q 487.0 49.0 487.0 47.0 Q 487.0 45.0 487.0 43.0 Q 487.0 41.0 487.0 39.0 Q 487.0 37.0 487.0 35.0 Q 487.0 33.0 486.0 32.0 Q 485.0 31.0 483.0 31.0 Q 481.0 31.0 479.0 31.0 Q 477.0 31.0 475.0 31.0 Q 473.0 31.0 471.0 31.0 Q 469.0 31.0 467.0 31.0 Q 465.0 31.0 463.0 31.0 Q 461.0 31.0 459.0 31.0 Q 457.0 31.0 455.0 31.0 Q 453.0 31.0 451.0 31.0 Q 449.0 31.0 447.0 31.0 Q 445.0 31.0 443.0 31.0 Q 441.0 31.0 439.0 31.0 Q 437.0 31.0 435.0 31.0 Q 433.0 31.0 431.0 31.0 Q 429.0 31.0 427.0 31.0 Q 425.0 31.0 423.0 31.0 Q 421.0 31.0 419.0 31.0 Q 417.0 31.0 415.0 31.0 Q 413.0 31.0 411.0 31.0 Q 409.0 31.0 407.0 31.0 Q 405.0 31.0 403.0 31.0 Q 401.0 31.0 399.0 31.0 Q 397.0 31.0 395.0 31.0 Q 393.0 31.0 391.0 31.0 Q 389.0 31.0 387.0 31.0 Q 385.0 31.0 383.0 31.0 Q 381.0 31.0 379.0 31.0 Q 377.0 31.0 375.0 31.0 Q 373.0 31.0 371.0 31.0 Q 369.0 31.0 367.0 31.0 Q 365.0 31.0 363.0 31.0 Q 361.0 31.0 359.0 31.0 Q 357.0 31.0 355.0 31.0 Q 353.0 31.0 351.0 31.0 Q 349.0 31.0 347.0 31.0 Q 345.0 31.0 343.0 31.0 Q 341.0 31.0 339.0 31.0 Q 337.0 31.0 335.0 31.0 Q 333.0 31.0 331.0 31.0 Q 329.0 31.0 327.0 31.0 Q 325.0 31.0 323.0 31.0 Q 321.0 31.0 319.0 31.0 Q 317.0 31.0 315.0 31.0 Q 313.0 31.0 311.0 31.0 Q 309.0 31.0 307.0 31.0 Q 305.0 31.0 303.0 31.0 Q 301.0 31.0 299.0 31.0 Q 297.0 31.0 295.0 31.0 Q 293.0 31.0 291.0 31.0 Q 289.0 31.0 287.0 31.0 Q 285.0 31.0 283.0 31.0 Q 281.0 31.0 279.0 31.0 Q 277.0 31.0 275.0 31.0 Q 273.0 31.0 271.0 31.0 Q 269.0 31.0 267.0 31.0 Q 265.0 31.0 263.0 31.0 Q 261.0 31.0 259.0 31.0 Q 257.0 31.0 255.0 31.0 Q 253.0 31.0 251.0 31.0 Q 249.0 31.0 247.0 31.0 Q 245.0 31.0 243.0 31.0 Q 241.0 31.0 239.0 31.0 Q 237.0 31.0 235.0 31.0 Q 233.0 31.0 231.0 31.0 Q 229.0 31.0 227.0 31.0 Q 225.0 31.0 223.0 31.0 Q 221.0 31.0 219.0 31.0 Z" fill="#D9FF00"/>
</svg>